<svg width="25" height="25" viewBox="0 0 25 25" fill="none" xmlns="http://www.w3.org/2000/svg">
<g clip-path="url(#clip0_491_1345)">
<path d="M19.1406 0H5.85938C2.62333 0 0 2.62333 0 5.85938V19.1406C0 22.3767 2.62333 25 5.85938 25H19.1406C22.3767 25 25 22.3767 25 19.1406V5.85938C25 2.62333 22.3767 0 19.1406 0Z" fill="url(#paint0_radial_491_1345)"/>
<path d="M19.1406 0H5.85938C2.62333 0 0 2.62333 0 5.85938V19.1406C0 22.3767 2.62333 25 5.85938 25H19.1406C22.3767 25 25 22.3767 25 19.1406V5.85938C25 2.62333 22.3767 0 19.1406 0Z" fill="url(#paint1_radial_491_1345)"/>
<path d="M12.4856 4.5C10.3171 4.5 10.0449 4.5095 9.19322 4.54823C8.34314 4.5872 7.76288 4.72174 7.2552 4.91921C6.72995 5.12314 6.28447 5.39599 5.84067 5.83995C5.39647 6.28383 5.12362 6.72931 4.91905 7.25432C4.72102 7.76216 4.58632 8.34266 4.54807 9.19234C4.50998 10.0441 4.5 10.3164 4.5 12.485C4.5 14.6536 4.50958 14.925 4.54823 15.7766C4.58736 16.6267 4.7219 17.207 4.91921 17.7146C5.1233 18.2399 5.39615 18.6854 5.84011 19.1292C6.28383 19.5734 6.72931 19.8469 7.25416 20.0508C7.76224 20.2483 8.34258 20.3828 9.1925 20.4218C10.0442 20.4605 10.3162 20.47 12.4847 20.47C14.6535 20.47 14.9248 20.4605 15.7765 20.4218C16.6265 20.3828 17.2074 20.2483 17.7155 20.0508C18.2405 19.8469 18.6854 19.5734 19.129 19.1292C19.5732 18.6854 19.846 18.2399 20.0506 17.7149C20.2469 17.207 20.3817 16.6265 20.4216 15.7768C20.4599 14.9251 20.4698 14.6536 20.4698 12.485C20.4698 10.3164 20.4599 10.0442 20.4216 9.1925C20.3817 8.34242 20.2469 7.76224 20.0506 7.25456C19.846 6.72931 19.5732 6.28383 19.129 5.83995C18.6849 5.39583 18.2407 5.12298 17.715 4.91929C17.206 4.72174 16.6254 4.58712 15.7753 4.54823C14.9236 4.5095 14.6524 4.5 12.4832 4.5H12.4856ZM11.7693 5.93896C11.982 5.93864 12.2192 5.93896 12.4856 5.93896C14.6177 5.93896 14.8703 5.94663 15.7123 5.98488C16.4908 6.02049 16.9134 6.15056 17.1948 6.25988C17.5675 6.40456 17.8331 6.5776 18.1125 6.85715C18.3919 7.13662 18.5649 7.40276 18.71 7.77541C18.8193 8.05648 18.9495 8.47905 18.985 9.25758C19.0232 10.0993 19.0315 10.3521 19.0315 12.4832C19.0315 14.6142 19.0232 14.8671 18.985 15.7088C18.9494 16.4873 18.8193 16.9098 18.71 17.191C18.5653 17.5636 18.3919 17.829 18.1125 18.1083C17.833 18.3878 17.5676 18.5607 17.1948 18.7055C16.9137 18.8153 16.4908 18.945 15.7123 18.9807C14.8705 19.0189 14.6177 19.0272 12.4856 19.0272C10.3535 19.0272 10.1008 19.0189 9.25909 18.9807C8.48056 18.9447 8.058 18.8146 7.77629 18.7053C7.40372 18.5606 7.1375 18.3876 6.85803 18.1081C6.57855 17.8287 6.4056 17.5632 6.26052 17.1904C6.1512 16.9092 6.02097 16.4866 5.98551 15.7081C5.94727 14.8663 5.9396 14.6135 5.9396 12.4812C5.9396 10.3489 5.94727 10.0973 5.98551 9.25558C6.02113 8.47705 6.1512 8.05449 6.26052 7.77302C6.40528 7.40036 6.57855 7.13423 6.85811 6.85475C7.13758 6.57528 7.40372 6.40225 7.77637 6.25724C8.05784 6.14745 8.48056 6.01769 9.25909 5.98192C9.9957 5.94862 10.2812 5.93864 11.7693 5.93697V5.93896ZM16.748 7.26478C16.219 7.26478 15.7898 7.69357 15.7898 8.22265C15.7898 8.75165 16.219 9.18084 16.748 9.18084C17.277 9.18084 17.7062 8.75165 17.7062 8.22265C17.7062 7.69365 17.277 7.26478 16.748 7.26478ZM12.4856 8.38434C10.2211 8.38434 8.38506 10.2204 8.38506 12.485C8.38506 14.7496 10.2211 16.5848 12.4856 16.5848C14.7502 16.5848 16.5857 14.7496 16.5857 12.485C16.5857 10.2205 14.7502 8.38434 12.4856 8.38434ZM12.4856 9.82331C13.9556 9.82331 15.1473 11.0149 15.1473 12.485C15.1473 13.9549 13.9556 15.1467 12.4856 15.1467C11.0156 15.1467 9.82403 13.9549 9.82403 12.485C9.82403 11.0149 11.0156 9.82331 12.4856 9.82331Z" fill="white"/>
</g>
<defs>
<radialGradient id="paint0_radial_491_1345" cx="0" cy="0" r="1" gradientUnits="userSpaceOnUse" gradientTransform="translate(6.64062 26.9255) rotate(-90) scale(24.7769 23.0444)">
<stop stop-color="#FFDD55"/>
<stop offset="0.1" stop-color="#FFDD55"/>
<stop offset="0.5" stop-color="#FF543E"/>
<stop offset="1" stop-color="#C837AB"/>
</radialGradient>
<radialGradient id="paint1_radial_491_1345" cx="0" cy="0" r="1" gradientUnits="userSpaceOnUse" gradientTransform="translate(-4.1876 1.80088) rotate(78.681) scale(11.0754 45.6531)">
<stop stop-color="#3771C8"/>
<stop offset="0.128" stop-color="#3771C8"/>
<stop offset="1" stop-color="#6600FF" stop-opacity="0"/>
</radialGradient>
<clipPath id="clip0_491_1345">
<rect width="25" height="25" rx="12.5" fill="white"/>
</clipPath>
</defs>
</svg>
