<svg width="236" height="266" viewBox="0 0 236 266" fill="none" xmlns="http://www.w3.org/2000/svg">
<rect width="236" height="266" rx="16" fill="#D9D9D9"/>
<path d="M222.583 146.417C217.841 142.082 210.526 141.718 205.827 146.417C197.051 155.193 188.276 163.968 179.5 172.744C173.61 166.855 167.727 160.971 161.838 155.082C158.951 152.195 156.059 149.303 153.173 146.417C148.788 142.032 140.74 141.693 136.417 146.417C132.082 151.159 131.718 158.474 136.417 163.173C145.193 171.949 153.968 180.724 162.744 189.5C156.855 195.39 150.971 201.273 145.082 207.162C142.195 210.049 139.303 212.941 136.417 215.827C132.032 220.212 131.693 228.26 136.417 232.583C141.159 236.918 148.474 237.282 153.173 232.583C161.949 223.807 170.724 215.032 179.5 206.256C185.39 212.145 191.273 218.029 197.162 223.918C200.049 226.805 202.941 229.697 205.827 232.583C210.212 236.968 218.26 237.307 222.583 232.583C226.918 227.841 227.282 220.526 222.583 215.827C213.807 207.051 205.032 198.276 196.256 189.5C202.145 183.61 208.029 177.727 213.918 171.838C216.804 168.951 219.697 166.059 222.583 163.173C226.968 158.788 227.307 150.74 222.583 146.417Z" fill="#4A39C3"/>
<path d="M179.5 103C202.42 103 221 84.4198 221 61.5C221 38.5802 202.42 20 179.5 20C156.58 20 138 38.5802 138 61.5C138 84.4198 156.58 103 179.5 103Z" fill="#39C2AB"/>
<path d="M78.4574 10H23.5426C16.0633 10 10 16.0631 10 23.5423V242.458C10 249.937 16.0633 256 23.5426 256H78.4574C85.9367 256 92 249.937 92 242.458V23.5423C92 16.0631 85.9367 10 78.4574 10Z" fill="#3981C3"/>
</svg>
