<svg width="1668" height="656" viewBox="0 0 1668 656" fill="none" xmlns="http://www.w3.org/2000/svg">
<path d="M344.6 346.58C336.91 339.55 325.05 338.96 317.43 346.58C303.2 360.81 288.97 375.04 274.74 389.27C265.19 379.72 255.65 370.18 246.1 360.63C241.42 355.95 236.73 351.26 232.05 346.58C224.94 339.47 211.89 338.92 204.88 346.58C197.85 354.27 197.26 366.13 204.88 373.75C219.11 387.98 233.34 402.21 247.57 416.44C238.02 425.99 228.48 435.53 218.93 445.08C214.25 449.76 209.56 454.45 204.88 459.13C197.77 466.24 197.22 479.29 204.88 486.3C212.57 493.33 224.43 493.92 232.05 486.3C246.28 472.07 260.51 457.84 274.74 443.61C284.29 453.16 293.83 462.7 303.38 472.25C308.06 476.93 312.75 481.62 317.43 486.3C324.54 493.41 337.59 493.96 344.6 486.3C351.63 478.61 352.22 466.75 344.6 459.13C330.37 444.9 316.14 430.67 301.91 416.44C311.46 406.89 321 397.35 330.55 387.8C335.23 383.12 339.92 378.43 344.6 373.75C351.71 366.64 352.26 353.59 344.6 346.58Z" fill="#4A39C3"/>
<path d="M274.6 275.3C311.421 275.3 341.27 245.451 341.27 208.63C341.27 171.809 311.421 141.96 274.6 141.96C237.779 141.96 207.93 171.809 207.93 208.63C207.93 245.451 237.779 275.3 274.6 275.3Z" fill="#39C2AB"/>
<path d="M116.75 124.38H16.58C7.42312 124.38 0 131.803 0 140.96V507.8C0 516.957 7.42312 524.38 16.58 524.38H116.75C125.907 524.38 133.33 516.957 133.33 507.8V140.96C133.33 131.803 125.907 124.38 116.75 124.38Z" fill="#3981C3"/>
<path d="M454.54 157.48C456.77 161.53 459.35 166.53 462.27 172.47C465.19 178.42 468.23 184.86 471.4 191.79C474.57 198.72 477.7 205.8 480.81 213.04C483.91 220.28 486.83 227.09 489.56 233.46C492.29 227.08 495.21 220.28 498.31 213.04C501.41 205.8 504.55 198.72 507.71 191.79C510.88 184.86 513.92 178.42 516.84 172.47C519.76 166.52 522.33 161.52 524.57 157.48H550.95C552.19 165.94 553.33 175.42 554.39 185.91C555.44 196.4 556.37 207.32 557.18 218.66C557.98 230.01 558.73 241.38 559.41 252.79C560.09 264.2 560.68 274.93 561.18 284.99H532.94C532.57 272.6 532.07 259.11 531.45 244.51C530.83 229.91 529.9 215.2 528.66 200.35C526.42 205.5 523.94 211.21 521.21 217.46C518.48 223.72 515.77 229.97 513.1 236.23C510.43 242.49 507.85 248.46 505.37 254.17C502.89 259.87 500.77 264.75 499.03 268.8H478.78C477.04 264.75 474.93 259.88 472.44 254.17C469.96 248.47 467.38 242.49 464.7 236.23C462.03 229.97 459.33 223.72 456.6 217.46C453.87 211.2 451.38 205.5 449.15 200.35C447.91 215.19 446.98 229.91 446.36 244.51C445.74 259.11 445.25 272.6 444.87 284.99H416.63C417.12 274.93 417.71 264.2 418.39 252.79C419.07 241.38 419.81 230.01 420.62 218.66C421.42 207.32 422.35 196.4 423.41 185.91C424.46 175.42 425.61 165.95 426.85 157.48H454.53H454.54Z" fill="white"/>
<path d="M580.48 237.33C580.48 228.75 581.81 221.23 584.47 214.79C587.13 208.35 590.63 202.99 594.97 198.69C599.3 194.4 604.29 191.15 609.92 188.94C615.55 186.73 621.34 185.63 627.29 185.63C641.16 185.63 652.12 189.83 660.17 198.23C668.22 206.63 672.24 218.99 672.24 235.3C672.24 236.9 672.18 238.64 672.05 240.54C671.93 242.44 671.8 244.13 671.68 245.6H608.89C609.51 251.24 612.17 255.72 616.88 259.03C621.59 262.34 627.9 264 635.83 264C640.91 264 645.89 263.54 650.78 262.62C655.67 261.7 659.66 260.57 662.76 259.22L666.48 281.48C664.99 282.22 663.01 282.95 660.54 283.69C658.06 284.43 655.31 285.07 652.27 285.62C649.23 286.17 645.98 286.63 642.52 287C639.05 287.37 635.58 287.55 632.12 287.55C623.33 287.55 615.68 286.26 609.18 283.69C602.68 281.11 597.29 277.59 593.02 273.11C588.75 268.63 585.59 263.33 583.55 257.19C581.51 251.06 580.48 244.43 580.48 237.32V237.33ZM645.5 226.84C645.38 224.51 644.97 222.24 644.29 220.03C643.61 217.82 642.55 215.86 641.13 214.14C639.7 212.42 637.91 211.01 635.74 209.91C633.57 208.81 630.88 208.25 627.66 208.25C624.44 208.25 621.9 208.77 619.67 209.81C617.44 210.85 615.58 212.23 614.1 213.95C612.61 215.67 611.47 217.66 610.66 219.93C609.85 222.2 609.27 224.5 608.9 226.83H645.5V226.84Z" fill="white"/>
<path d="M723.9 160.24C723.9 165.27 722.26 169.23 718.98 172.11C715.7 174.99 711.83 176.43 707.37 176.43C702.91 176.43 699.04 174.99 695.76 172.11C692.48 169.23 690.84 165.27 690.84 160.24C690.84 155.21 692.48 151.26 695.76 148.37C699.04 145.49 702.91 144.05 707.37 144.05C711.83 144.05 715.7 145.49 718.98 148.37C722.26 151.25 723.9 155.21 723.9 160.24ZM721.3 284.98H693.62V188.2H721.3V284.98Z" fill="white"/>
<path d="M747.3 191.52C752.01 190.17 758.07 188.92 765.51 187.75C772.94 186.59 780.74 186 788.92 186C797.1 186 804.12 187.08 809.63 189.22C815.14 191.37 819.51 194.4 822.73 198.33C825.95 202.26 828.24 206.92 829.6 212.31C830.96 217.71 831.64 223.72 831.64 230.34V284.98H803.96V233.65C803.96 224.82 802.78 218.56 800.43 214.88C798.08 211.2 793.68 209.36 787.24 209.36C785.26 209.36 783.15 209.45 780.92 209.64C778.69 209.82 776.71 210.04 774.97 210.28V284.98H747.29V191.51L747.3 191.52Z" fill="white"/>
<path d="M542.97 408.07C542.97 418.99 541.34 428.58 538.09 436.86C534.83 445.14 530.38 452.07 524.73 457.65C519.08 463.23 512.35 467.43 504.56 470.25C496.76 473.07 488.38 474.48 479.41 474.48C470.44 474.48 462.46 473.07 454.72 470.25C446.98 467.43 440.23 463.23 434.45 457.65C428.68 452.07 424.13 445.14 420.82 436.86C417.51 428.58 415.85 418.98 415.85 408.07C415.85 397.16 417.57 387.56 421.01 379.28C424.45 371 429.08 364.04 434.92 358.4C440.75 352.76 447.51 348.53 455.19 345.71C462.86 342.89 470.94 341.48 479.42 341.48C487.9 341.48 496.37 342.89 504.11 345.71C511.85 348.53 518.6 352.76 524.38 358.4C530.15 364.04 534.7 371 538.01 379.28C541.33 387.56 542.98 397.16 542.98 408.07H542.97ZM445.51 408.07C445.51 414.33 446.28 419.97 447.81 425C449.34 430.03 451.56 434.35 454.44 437.97C457.32 441.59 460.86 444.38 465.03 446.34C469.2 448.3 473.99 449.28 479.4 449.28C484.81 449.28 489.44 448.3 493.68 446.34C497.92 444.38 501.48 441.59 504.37 437.97C507.25 434.35 509.47 430.03 511 425C512.53 419.97 513.3 414.33 513.3 408.07C513.3 401.81 512.53 396.14 511 391.05C509.46 385.96 507.25 381.61 504.37 377.99C501.48 374.37 497.92 371.58 493.68 369.62C489.44 367.66 484.68 366.68 479.4 366.68C474.12 366.68 469.2 367.69 465.03 369.72C460.85 371.74 457.32 374.57 454.44 378.18C451.55 381.8 449.34 386.15 447.81 391.24C446.27 396.33 445.51 401.94 445.51 408.07Z" fill="white"/>
<path d="M565.07 378.44C569.74 377.09 575.76 375.84 583.12 374.67C590.49 373.51 598.23 372.92 606.33 372.92C614.43 372.92 621.41 374 626.87 376.14C632.33 378.29 636.66 381.32 639.86 385.25C643.05 389.18 645.32 393.84 646.68 399.23C648.03 404.63 648.71 410.64 648.71 417.26V471.9H621.26V420.57C621.26 411.74 620.09 405.48 617.76 401.8C615.43 398.12 611.06 396.28 604.68 396.28C602.71 396.28 600.63 396.37 598.42 396.56C596.21 396.74 594.24 396.96 592.52 397.2V471.9H565.07V378.43V378.44Z" fill="white"/>
<path d="M712.27 473.75C704.28 473.63 697.81 472.77 692.83 471.17C687.86 469.58 683.92 467.34 681.04 464.46C678.15 461.58 676.19 458.08 675.14 453.97C674.1 449.86 673.57 445.23 673.57 440.08V333.55L701.02 329.13V434.55C701.02 437.01 701.2 439.21 701.57 441.17C701.94 443.13 702.64 444.79 703.69 446.14C704.73 447.49 706.24 448.6 708.2 449.45C710.16 450.31 712.81 450.86 716.12 451.11L712.25 473.74L712.27 473.75Z" fill="white"/>
<path d="M761.82 347.17C761.82 352.2 760.19 356.16 756.94 359.04C753.69 361.92 749.85 363.36 745.43 363.36C741.01 363.36 737.17 361.92 733.92 359.04C730.66 356.16 729.04 352.2 729.04 347.17C729.04 342.14 730.67 338.19 733.92 335.3C737.17 332.42 741.01 330.98 745.43 330.98C749.85 330.98 753.69 332.42 756.94 335.3C760.19 338.18 761.82 342.14 761.82 347.17ZM759.24 471.91H731.79V375.13H759.24V471.91Z" fill="white"/>
<path d="M785.03 378.44C789.7 377.09 795.72 375.84 803.08 374.67C810.45 373.51 818.19 372.92 826.29 372.92C834.39 372.92 841.37 374 846.83 376.14C852.29 378.29 856.62 381.32 859.82 385.25C863.01 389.18 865.28 393.84 866.64 399.23C867.99 404.63 868.67 410.64 868.67 417.26V471.9H841.22V420.57C841.22 411.74 840.05 405.48 837.72 401.8C835.39 398.12 831.02 396.28 824.64 396.28C822.67 396.28 820.59 396.37 818.38 396.56C816.17 396.75 814.2 396.96 812.48 397.2V471.9H785.03V378.43V378.44Z" fill="white"/>
<path d="M888.94 424.26C888.94 415.68 890.26 408.16 892.9 401.72C895.54 395.28 899.01 389.92 903.31 385.62C907.61 381.33 912.55 378.08 918.14 375.87C923.73 373.66 929.47 372.56 935.37 372.56C949.12 372.56 959.99 376.76 967.98 385.16C975.96 393.56 979.95 405.92 979.95 422.23C979.95 423.83 979.89 425.57 979.77 427.47C979.65 429.37 979.52 431.06 979.4 432.53H917.13C917.74 438.17 920.38 442.65 925.05 445.96C929.72 449.27 935.98 450.93 943.84 450.93C948.87 450.93 953.82 450.47 958.67 449.55C963.52 448.63 967.48 447.5 970.55 446.15L974.23 468.41C972.76 469.15 970.79 469.88 968.33 470.62C965.87 471.36 963.14 472 960.13 472.55C957.12 473.1 953.9 473.56 950.46 473.93C947.02 474.3 943.58 474.48 940.14 474.48C931.42 474.48 923.84 473.19 917.39 470.62C910.94 468.04 905.6 464.52 901.36 460.04C897.12 455.56 893.99 450.26 891.96 444.12C889.93 437.99 888.92 431.37 888.92 424.25L888.94 424.26ZM953.42 413.77C953.3 411.44 952.9 409.17 952.22 406.96C951.54 404.75 950.5 402.79 949.09 401.07C947.68 399.35 945.89 397.94 943.75 396.84C941.6 395.74 938.93 395.18 935.74 395.18C932.55 395.18 930.03 395.7 927.82 396.74C925.61 397.78 923.77 399.16 922.29 400.88C920.82 402.6 919.68 404.59 918.88 406.86C918.08 409.13 917.5 411.43 917.13 413.76H953.42V413.77Z" fill="white"/>
<path d="M1059.53 399.42C1057.07 398.81 1054.19 398.16 1050.87 397.49C1047.55 396.82 1043.99 396.48 1040.18 396.48C1038.46 396.48 1036.4 396.64 1034.01 396.94C1031.62 397.25 1029.8 397.58 1028.58 397.95V471.91H1001.13V380.28C1006.04 378.56 1011.84 376.94 1018.54 375.4C1025.23 373.87 1032.69 373.1 1040.92 373.1C1042.39 373.1 1044.17 373.19 1046.26 373.38C1048.35 373.56 1050.43 373.81 1052.52 374.12C1054.61 374.43 1056.69 374.8 1058.78 375.22C1060.87 375.65 1062.65 376.17 1064.12 376.78L1059.51 399.41L1059.53 399.42Z" fill="white"/>
<path d="M1072.43 424.26C1072.43 415.68 1073.75 408.16 1076.39 401.72C1079.03 395.28 1082.5 389.92 1086.8 385.62C1091.1 381.33 1096.04 378.08 1101.63 375.87C1107.22 373.66 1112.96 372.56 1118.86 372.56C1132.61 372.56 1143.48 376.76 1151.47 385.16C1159.45 393.56 1163.44 405.92 1163.44 422.23C1163.44 423.83 1163.38 425.57 1163.26 427.47C1163.14 429.37 1163.01 431.06 1162.89 432.53H1100.62C1101.23 438.17 1103.87 442.65 1108.54 445.96C1113.21 449.27 1119.47 450.93 1127.33 450.93C1132.36 450.93 1137.31 450.47 1142.16 449.55C1147.01 448.63 1150.97 447.5 1154.04 446.15L1157.72 468.41C1156.25 469.15 1154.28 469.88 1151.82 470.62C1149.36 471.36 1146.63 472 1143.62 472.55C1140.61 473.1 1137.39 473.56 1133.95 473.93C1130.51 474.3 1127.07 474.48 1123.63 474.48C1114.91 474.48 1107.33 473.19 1100.88 470.62C1094.43 468.04 1089.09 464.52 1084.85 460.04C1080.61 455.56 1077.48 450.26 1075.45 444.12C1073.42 437.99 1072.41 431.37 1072.41 424.25L1072.43 424.26ZM1136.91 413.77C1136.79 411.44 1136.39 409.17 1135.71 406.96C1135.03 404.75 1133.99 402.79 1132.58 401.07C1131.17 399.35 1129.38 397.94 1127.24 396.84C1125.09 395.74 1122.42 395.18 1119.23 395.18C1116.04 395.18 1113.52 395.7 1111.31 396.74C1109.1 397.78 1107.26 399.16 1105.78 400.88C1104.31 402.6 1103.17 404.59 1102.37 406.86C1101.57 409.13 1100.99 411.43 1100.62 413.76H1136.91V413.77Z" fill="white"/>
<path d="M1180.02 423.52C1180.02 416.53 1181.15 409.94 1183.43 403.74C1185.7 397.55 1188.99 392.15 1193.29 387.55C1197.59 382.95 1202.81 379.3 1208.95 376.6C1215.09 373.9 1222.09 372.55 1229.95 372.55C1235.11 372.55 1239.84 373.01 1244.14 373.93C1248.44 374.85 1252.61 376.17 1256.67 377.89L1250.96 399.78C1248.38 398.8 1245.55 397.94 1242.49 397.2C1239.42 396.46 1235.98 396.1 1232.17 396.1C1224.06 396.1 1218.01 398.62 1214.02 403.64C1210.03 408.67 1208.03 415.29 1208.03 423.51C1208.03 432.22 1209.9 438.97 1213.65 443.75C1217.4 448.53 1223.94 450.93 1233.27 450.93C1236.59 450.93 1240.15 450.63 1243.96 450.01C1247.76 449.4 1251.27 448.42 1254.46 447.07L1258.33 469.52C1255.13 470.87 1251.15 472.03 1246.36 473.02C1241.57 474 1236.29 474.49 1230.52 474.49C1221.68 474.49 1214.06 473.17 1207.68 470.53C1201.29 467.89 1196.04 464.31 1191.93 459.77C1187.81 455.23 1184.81 449.87 1182.9 443.67C1180.99 437.48 1180.04 430.76 1180.04 423.52H1180.02Z" fill="white"/>
<path d="M1276.74 471.91V333.55L1304.19 329.13V375.5C1306.03 374.89 1308.4 374.3 1311.28 373.75C1314.16 373.2 1316.96 372.92 1319.66 372.92C1327.52 372.92 1334.06 374 1339.28 376.14C1344.5 378.29 1348.68 381.32 1351.81 385.25C1354.94 389.18 1357.15 393.84 1358.44 399.23C1359.73 404.63 1360.37 410.64 1360.37 417.26V471.9H1332.92V420.57C1332.92 411.74 1331.78 405.48 1329.51 401.8C1327.24 398.12 1323.03 396.28 1316.89 396.28C1314.43 396.28 1312.13 396.5 1309.98 396.92C1307.83 397.35 1305.9 397.81 1304.18 398.3V471.89H1276.73L1276.74 471.91Z" fill="white"/>
<path d="M1385.25 378.44C1389.92 377.09 1395.94 375.84 1403.3 374.67C1410.67 373.51 1418.41 372.92 1426.51 372.92C1434.61 372.92 1441.59 374 1447.05 376.14C1452.51 378.29 1456.84 381.32 1460.04 385.25C1463.23 389.18 1465.5 393.84 1466.86 399.23C1468.21 404.63 1468.89 410.64 1468.89 417.26V471.9H1441.44V420.57C1441.44 411.74 1440.27 405.48 1437.94 401.8C1435.61 398.12 1431.24 396.28 1424.86 396.28C1422.89 396.28 1420.81 396.37 1418.6 396.56C1416.39 396.75 1414.42 396.96 1412.7 397.2V471.9H1385.25V378.43V378.44Z" fill="white"/>
<path d="M1489.15 424.26C1489.15 415.68 1490.47 408.16 1493.11 401.72C1495.75 395.28 1499.22 389.92 1503.52 385.62C1507.82 381.33 1512.76 378.08 1518.35 375.87C1523.94 373.66 1529.68 372.56 1535.58 372.56C1549.33 372.56 1560.2 376.76 1568.19 385.16C1576.17 393.56 1580.16 405.92 1580.16 422.23C1580.16 423.83 1580.1 425.57 1579.98 427.47C1579.86 429.37 1579.73 431.06 1579.61 432.53H1517.34C1517.95 438.17 1520.59 442.65 1525.26 445.96C1529.93 449.27 1536.19 450.93 1544.05 450.93C1549.08 450.93 1554.03 450.47 1558.88 449.55C1563.73 448.63 1567.69 447.5 1570.76 446.15L1574.44 468.41C1572.97 469.15 1571 469.88 1568.54 470.62C1566.08 471.36 1563.35 472 1560.34 472.55C1557.33 473.1 1554.11 473.56 1550.67 473.93C1547.23 474.3 1543.79 474.48 1540.35 474.48C1531.63 474.48 1524.05 473.19 1517.6 470.62C1511.15 468.04 1505.81 464.52 1501.57 460.04C1497.33 455.56 1494.2 450.26 1492.17 444.12C1490.14 437.99 1489.13 431.37 1489.13 424.25L1489.15 424.26ZM1553.63 413.77C1553.51 411.44 1553.11 409.17 1552.43 406.96C1551.75 404.75 1550.71 402.79 1549.3 401.07C1547.89 399.35 1546.1 397.94 1543.96 396.84C1541.81 395.74 1539.14 395.18 1535.95 395.18C1532.76 395.18 1530.24 395.7 1528.03 396.74C1525.82 397.78 1523.98 399.16 1522.5 400.88C1521.03 402.6 1519.89 404.59 1519.09 406.86C1518.29 409.13 1517.71 411.43 1517.34 413.76H1553.63V413.77Z" fill="white"/>
<path d="M1659.74 399.42C1657.28 398.81 1654.4 398.16 1651.08 397.49C1647.76 396.82 1644.2 396.48 1640.39 396.48C1638.67 396.48 1636.61 396.64 1634.22 396.94C1631.83 397.25 1630.01 397.58 1628.79 397.95V471.91H1601.34V380.28C1606.25 378.56 1612.05 376.94 1618.75 375.4C1625.44 373.87 1632.9 373.1 1641.13 373.1C1642.6 373.1 1644.38 373.19 1646.47 373.38C1648.56 373.56 1650.64 373.81 1652.73 374.12C1654.82 374.43 1656.9 374.8 1658.99 375.22C1661.08 375.65 1662.86 376.17 1664.33 376.78L1659.72 399.41L1659.74 399.42Z" fill="white"/>
</svg>
