<svg width="14" height="14" viewBox="0 0 14 14" fill="none" xmlns="http://www.w3.org/2000/svg">
<path d="M11.0777 1.16699H5.25546C4.60738 1.16699 4.08296 1.69141 4.08296 2.33949V5.62774L1.34013 8.33558C1.25795 8.41686 1.20176 8.52072 1.17871 8.63398C1.15566 8.74725 1.16678 8.86481 1.21065 8.97175C1.25452 9.07868 1.32918 9.17018 1.42514 9.23461C1.5211 9.29905 1.63404 9.33352 1.74963 9.33366V12.2503C1.74963 12.405 1.81109 12.5534 1.92049 12.6628C2.02988 12.7722 2.17825 12.8337 2.33296 12.8337H11.6663C11.821 12.8337 11.9694 12.7722 12.0788 12.6628C12.1882 12.5534 12.2496 12.405 12.2496 12.2503V2.33891C12.2496 1.69141 11.7258 1.16699 11.0777 1.16699ZM6.3708 8.81508V11.667H2.9163V8.41899L4.65871 6.69874L6.3708 8.45049V8.81508ZM7.58296 5.25033H6.4163V4.08366H7.58296V5.25033ZM9.9163 9.91699H8.74963V8.75033H9.9163V9.91699ZM9.9163 7.58366H8.74963V6.41699H9.9163V7.58366ZM9.9163 5.25033H8.74963V4.08366H9.9163V5.25033Z" fill="#999999"/>
<path d="M4.08301 8.75H5.24967V9.91667H4.08301V8.75Z" fill="#999999"/>
</svg>
