<svg width="14" height="14" viewBox="0 0 14 14" fill="none" xmlns="http://www.w3.org/2000/svg">
<path d="M8.3125 2.91699C8.3125 2.49233 8.31133 2.21699 8.2845 2.01516C8.25883 1.82558 8.21742 1.76608 8.18417 1.73283C8.15092 1.69958 8.09142 1.65816 7.90183 1.63249C7.69942 1.60566 7.42467 1.60449 7 1.60449C6.57533 1.60449 6.3 1.60566 6.09817 1.63249C5.90858 1.65816 5.84908 1.69958 5.81583 1.73283C5.78258 1.76608 5.74117 1.82558 5.7155 2.01516C5.68867 2.21758 5.6875 2.49233 5.6875 2.91699V12.3962H8.3125V2.91699Z" fill="#999999"/>
<path d="M11.8125 8.45866C11.8125 8.34263 11.7664 8.23135 11.6844 8.1493C11.6023 8.06725 11.491 8.02116 11.375 8.02116H9.625C9.50897 8.02116 9.39769 8.06725 9.31564 8.1493C9.23359 8.23135 9.1875 8.34263 9.1875 8.45866V12.3962H11.8125V8.45866Z" fill="#999999"/>
<path d="M4.8125 12.3962V5.54199C4.8125 5.42596 4.76641 5.31468 4.68436 5.23263C4.60231 5.15059 4.49103 5.10449 4.375 5.10449H2.625C2.50897 5.10449 2.39769 5.15059 2.31564 5.23263C2.23359 5.31468 2.1875 5.42596 2.1875 5.54199V12.3962H4.8125Z" fill="#999999"/>
</svg>
