<svg width="14" height="14" viewBox="0 0 14 14" fill="none" xmlns="http://www.w3.org/2000/svg">
<path d="M12.1173 5.92342L11.3193 3.52943C11.2036 3.18087 10.9809 2.87767 10.683 2.66289C10.3851 2.44811 10.027 2.33268 9.65974 2.33301H4.34091C3.97364 2.33268 3.6156 2.44811 3.31767 2.66289C3.01975 2.87767 2.79709 3.18087 2.68133 3.52943L1.88333 5.92342C1.67112 6.01222 1.4899 6.16176 1.36245 6.35325C1.23499 6.54475 1.16699 6.76964 1.16699 6.99967V9.91634C1.16699 10.3468 1.40266 10.719 1.75033 10.9214V12.2497C1.75033 12.4044 1.81178 12.5528 1.92118 12.6622C2.03058 12.7716 2.17895 12.833 2.33366 12.833H2.91699C3.0717 12.833 3.22007 12.7716 3.32947 12.6622C3.43887 12.5528 3.50033 12.4044 3.50033 12.2497V11.083H10.5003V12.2497C10.5003 12.4044 10.5618 12.5528 10.6712 12.6622C10.7806 12.7716 10.9289 12.833 11.0837 12.833H11.667C11.8217 12.833 11.9701 12.7716 12.0795 12.6622C12.1889 12.5528 12.2503 12.4044 12.2503 12.2497V10.9214C12.4273 10.8199 12.5744 10.6736 12.6768 10.4971C12.7792 10.3207 12.8333 10.1204 12.8337 9.91634V6.99967C12.8337 6.76964 12.7657 6.54475 12.6382 6.35325C12.5107 6.16176 12.3295 6.01222 12.1173 5.92342ZM4.34091 3.49968H9.65916C9.91058 3.49968 10.1334 3.65951 10.2127 3.89868L10.8579 5.83301H3.14274L3.78733 3.89868C3.82603 3.78247 3.90033 3.6814 3.99969 3.60978C4.09905 3.53817 4.21843 3.49965 4.34091 3.49968ZM3.20866 9.33301C3.09371 9.33297 2.9799 9.31029 2.87372 9.26627C2.76754 9.22225 2.67107 9.15774 2.58982 9.07644C2.50857 8.99513 2.44413 8.89862 2.40017 8.79241C2.35622 8.6862 2.33362 8.57237 2.33366 8.45742C2.3337 8.34248 2.35638 8.22867 2.4004 8.12249C2.44442 8.01631 2.50893 7.91984 2.59023 7.83859C2.67154 7.75733 2.76805 7.69289 2.87426 7.64894C2.98047 7.60499 3.0943 7.58239 3.20924 7.58242C3.44138 7.5825 3.66399 7.67479 3.82808 7.839C3.99218 8.0032 4.08432 8.22587 4.08424 8.45801C4.08416 8.69015 3.99187 8.91275 3.82767 9.07685C3.66347 9.24094 3.4408 9.33309 3.20866 9.33301ZM10.792 9.33301C10.677 9.33297 10.5632 9.31029 10.4571 9.26627C10.3509 9.22225 10.2544 9.15774 10.1732 9.07644C10.0919 8.99513 10.0275 8.89862 9.98351 8.79241C9.93956 8.6862 9.91695 8.57237 9.91699 8.45742C9.91703 8.34248 9.93971 8.22867 9.98373 8.12249C10.0278 8.01631 10.0923 7.91984 10.1736 7.83859C10.2549 7.75733 10.3514 7.69289 10.4576 7.64894C10.5638 7.60499 10.6776 7.58239 10.7926 7.58242C11.0247 7.5825 11.2473 7.67479 11.4114 7.839C11.5755 8.0032 11.6677 8.22587 11.6676 8.45801C11.6675 8.69015 11.5752 8.91275 11.411 9.07685C11.2468 9.24094 11.0241 9.33309 10.792 9.33301Z" fill="#999999"/>
</svg>
