<svg width="14" height="14" viewBox="0 0 14 14" fill="none" xmlns="http://www.w3.org/2000/svg">
<path d="M3.416 1.55487C4.35575 1.12787 5.62363 0.875 7 0.875C8.37637 0.875 9.64425 1.12787 10.584 1.55487C11.4844 1.96437 12.25 2.61888 12.25 3.5C12.25 4.38112 11.4844 5.03563 10.584 5.44513C9.64425 5.87213 8.37637 6.125 7 6.125C5.62363 6.125 4.35575 5.87213 3.416 5.44513C2.51562 5.03563 1.75 4.38112 1.75 3.5C1.75 2.61888 2.51562 1.96437 3.416 1.55487Z" fill="#999999"/>
<path d="M1.75 5.39062V6.12475C1.75 7.00588 2.51562 7.66037 3.416 8.06987C4.35575 8.496 5.62363 8.74975 7 8.74975C8.37637 8.74975 9.64425 8.49687 10.584 8.06987C11.4844 7.66037 12.25 7.00588 12.25 6.12475V5.39062C11.8501 5.76863 11.3715 6.04775 10.9463 6.24113C9.86825 6.73113 8.47175 6.99975 7 6.99975C5.52825 6.99975 4.13175 6.73113 3.05375 6.24113C2.6285 6.04863 2.14987 5.76863 1.75 5.39062Z" fill="#999999"/>
<path d="M1.75 8.01562V8.74975C1.75 9.63087 2.51562 10.2854 3.416 10.6949C4.35575 11.1219 5.62363 11.3747 7 11.3747C8.37637 11.3747 9.64425 11.1219 10.584 10.6949C11.4844 10.2854 12.25 9.63087 12.25 8.74975V8.01562C11.8501 8.39362 11.3715 8.67275 10.9463 8.86613C9.86825 9.35613 8.47175 9.62475 7 9.62475C5.52825 9.62475 4.13175 9.35613 3.05375 8.86613C2.6285 8.67363 2.14987 8.39362 1.75 8.01562Z" fill="#999999"/>
<path d="M1.75 10.6406V11.3747C1.75 12.2559 2.51562 12.9104 3.416 13.3199C4.35575 13.7469 5.62363 13.9997 7 13.9997C8.37637 13.9997 9.64425 13.7469 10.584 13.3199C11.4844 12.9104 12.25 12.2559 12.25 11.3747V10.6406C11.8501 11.0186 11.3715 11.2978 10.9463 11.4911C9.86825 11.9811 8.47175 12.2497 7 12.2497C5.52825 12.2497 4.13175 11.9811 3.05375 11.4911C2.6285 11.2986 2.14987 11.0186 1.75 10.6406Z" fill="#999999"/>
</svg>
