<svg width="132" height="35" viewBox="0 0 132 35" fill="none" xmlns="http://www.w3.org/2000/svg">
<g clip-path="url(#clip0_2001_710)">
<path d="M27.4994 19.2768C26.8905 18.7125 25.9514 18.6651 25.348 19.2768C24.2212 20.4191 23.0944 21.5614 21.9676 22.7038C21.2114 21.9371 20.456 21.1713 19.6998 20.4047C19.3292 20.029 18.9578 19.6525 18.5872 19.2768C18.0242 18.7061 16.9909 18.6619 16.4358 19.2768C15.8791 19.8941 15.8324 20.8462 16.4358 21.4579C17.5626 22.6002 18.6894 23.7425 19.8162 24.8848C19.06 25.6515 18.3045 26.4173 17.5483 27.1839C17.1778 27.5596 16.8064 27.9361 16.4358 28.3118C15.8728 28.8825 15.8293 29.9301 16.4358 30.4929C17.0447 31.0572 17.9839 31.1046 18.5872 30.4929C19.714 29.3505 20.8408 28.2082 21.9676 27.0659C22.7238 27.8325 23.4792 28.5984 24.2354 29.365C24.606 29.7407 24.9774 30.1172 25.348 30.4929C25.911 31.0636 26.9443 31.1078 27.4994 30.4929C28.0561 29.8755 28.1028 28.9235 27.4994 28.3118C26.3726 27.1695 25.2458 26.0272 24.119 24.8848C24.8753 24.1182 25.6307 23.3524 26.3869 22.5858C26.7575 22.2101 27.1288 21.8336 27.4994 21.4579C28.0624 20.8871 28.106 19.8395 27.4994 19.2768Z" fill="#3A81C3"/>
<path d="M21.956 13.5516C24.8716 13.5516 27.2352 11.1554 27.2352 8.1996C27.2352 5.24381 24.8716 2.84766 21.956 2.84766C19.0403 2.84766 16.6768 5.24381 16.6768 8.1996C16.6768 11.1554 19.0403 13.5516 21.956 13.5516Z" fill="#3A81C3"/>
<path d="M9.45569 1.4375H1.52381C0.798731 1.4375 0.210938 2.03339 0.210938 2.76846V32.2166C0.210938 32.9517 0.798731 33.5476 1.52381 33.5476H9.45569C10.1808 33.5476 10.7686 32.9517 10.7686 32.2166V2.76846C10.7686 2.03339 10.1808 1.4375 9.45569 1.4375Z" fill="#3A81C3"/>
<path d="M36.204 4.09375C36.3806 4.41886 36.5849 4.82024 36.8161 5.29708C37.0473 5.77471 37.2881 6.29169 37.5391 6.84799C37.7901 7.4043 38.0379 7.97265 38.2842 8.55384C38.5297 9.13504 38.7609 9.68171 38.9771 10.1931C39.1932 9.68091 39.4244 9.13504 39.6699 8.55384C39.9154 7.97265 40.164 7.4043 40.4142 6.84799C40.6653 6.29169 40.906 5.77471 41.1372 5.29708C41.3684 4.81944 41.5719 4.41806 41.7493 4.09375H43.8382C43.9364 4.77288 44.0266 5.53389 44.1106 6.37597C44.1937 7.21806 44.2673 8.09467 44.3315 9.00499C44.3948 9.91611 44.4542 10.8288 44.5081 11.7448C44.5619 12.6607 44.6086 13.5221 44.6482 14.3296H42.4121C42.3828 13.335 42.3432 12.2521 42.2941 11.0801C42.245 9.90809 42.1713 8.72724 42.0732 7.53515C41.8958 7.94857 41.6994 8.40694 41.4832 8.90866C41.2671 9.41118 41.0525 9.9129 40.841 10.4154C40.6296 10.9179 40.4253 11.3972 40.229 11.8556C40.0326 12.3131 39.8647 12.7049 39.7269 13.03H38.1234C37.9857 12.7049 37.8186 12.3139 37.6214 11.8556C37.425 11.398 37.2207 10.9179 37.0085 10.4154C36.7971 9.9129 36.5833 9.41118 36.3671 8.90866C36.151 8.40614 35.9538 7.94857 35.7772 7.53515C35.679 8.72643 35.6054 9.90809 35.5563 11.0801C35.5072 12.2521 35.4684 13.335 35.4383 14.3296H33.2021C33.2409 13.5221 33.2877 12.6607 33.3415 11.7448C33.3954 10.8288 33.454 9.91611 33.5181 9.00499C33.5814 8.09467 33.6551 7.21806 33.739 6.37597C33.8222 5.53389 33.9132 4.77368 34.0114 4.09375H36.2032H36.204Z" fill="#3A81C3"/>
<path d="M46.1777 10.5018C46.1777 9.81303 46.2831 9.20936 46.4937 8.69239C46.7043 8.17542 46.9815 7.74514 47.3251 7.39996C47.668 7.05558 48.0631 6.79468 48.5089 6.61727C48.9547 6.43987 49.4132 6.35156 49.8843 6.35156C50.9826 6.35156 51.8505 6.68872 52.4879 7.36303C53.1254 8.03734 53.4437 9.02954 53.4437 10.3388C53.4437 10.4673 53.4389 10.607 53.4286 10.7595C53.4191 10.912 53.4088 11.0477 53.3993 11.1657H48.4274C48.4765 11.6184 48.6871 11.9781 49.06 12.2438C49.433 12.5095 49.9327 12.6427 50.5606 12.6427C50.9628 12.6427 51.3572 12.6058 51.7444 12.532C52.1316 12.4581 52.4475 12.3674 52.693 12.259L52.9876 14.0459C52.8696 14.1053 52.7128 14.1639 52.5172 14.2233C52.3208 14.2828 52.1031 14.3341 51.8624 14.3783C51.6216 14.4224 51.3643 14.4594 51.0903 14.4891C50.8156 14.5188 50.5408 14.5332 50.2668 14.5332C49.5708 14.5332 48.965 14.4297 48.4503 14.2233C47.9356 14.0162 47.5088 13.7337 47.1707 13.374C46.8326 13.0144 46.5824 12.5889 46.4208 12.0961C46.2593 11.604 46.1777 11.0717 46.1777 10.501V10.5018ZM51.3263 9.6597C51.3168 9.47266 51.2843 9.29044 51.2305 9.11303C51.1766 8.93562 51.0927 8.77828 50.9803 8.64021C50.867 8.50214 50.7253 8.38895 50.5535 8.30064C50.3816 8.21234 50.1686 8.16739 49.9136 8.16739C49.6587 8.16739 49.4575 8.20913 49.281 8.29262C49.1044 8.3761 48.9571 8.48688 48.8399 8.62496C48.7219 8.76303 48.6317 8.92278 48.5675 9.105C48.5034 9.28723 48.4575 9.47186 48.4282 9.6589H51.3263V9.6597Z" fill="#3A81C3"/>
<path d="M57.5329 4.31528C57.5329 4.71906 57.403 5.03696 57.1433 5.26815C56.8836 5.49934 56.5771 5.61494 56.224 5.61494C55.8708 5.61494 55.5643 5.49934 55.3046 5.26815C55.0449 5.03696 54.915 4.71906 54.915 4.31528C54.915 3.9115 55.0449 3.59441 55.3046 3.36241C55.5643 3.13122 55.8708 3.01562 56.224 3.01562C56.5771 3.01562 56.8836 3.13122 57.1433 3.36241C57.403 3.59361 57.5329 3.9115 57.5329 4.31528ZM57.327 14.3288H55.1352V6.55978H57.327V14.3288Z" fill="#3A81C3"/>
<path d="M59.3856 6.82593C59.7585 6.71756 60.2392 6.61722 60.8275 6.52329C61.4158 6.43017 62.0335 6.38281 62.6812 6.38281C63.3289 6.38281 63.8848 6.46951 64.3211 6.6413C64.7574 6.81389 65.1027 7.05712 65.3584 7.37261C65.6134 7.68809 65.7947 8.06217 65.9024 8.49485C66.0101 8.92834 66.0639 9.41079 66.0639 9.94222V14.3285H63.8721V10.2079C63.8721 9.4991 63.7787 8.99657 63.5926 8.70116C63.4065 8.40575 63.0581 8.25804 62.5482 8.25804C62.3914 8.25804 62.2243 8.26527 62.0477 8.28052C61.8711 8.29497 61.7144 8.31263 61.5766 8.33189V14.3285H59.3848V6.82513L59.3856 6.82593Z" fill="#3A81C3"/>
<path d="M43.2055 24.2127C43.2055 25.0893 43.0765 25.8592 42.8191 26.5238C42.561 27.1885 42.2086 27.7448 41.7612 28.1928C41.3138 28.6407 40.7809 28.9778 40.1641 29.2042C39.5464 29.4306 38.8829 29.5438 38.1726 29.5438C37.4623 29.5438 36.8304 29.4306 36.2175 29.2042C35.6047 28.9778 35.0702 28.6407 34.6125 28.1928C34.1556 27.7448 33.7953 27.1885 33.5332 26.5238C33.2711 25.8592 33.1396 25.0885 33.1396 24.2127C33.1396 23.3369 33.2758 22.5663 33.5482 21.9016C33.8206 21.2369 34.1873 20.6782 34.6497 20.2254C35.1113 19.7727 35.6466 19.4331 36.2548 19.2068C36.8621 18.9804 37.5019 18.8672 38.1734 18.8672C38.8449 18.8672 39.5156 18.9804 40.1284 19.2068C40.7413 19.4331 41.2758 19.7727 41.7335 20.2254C42.1904 20.6782 42.5507 21.2369 42.8128 21.9016C43.0757 22.5663 43.2063 23.3369 43.2063 24.2127H43.2055ZM35.4883 24.2127C35.4883 24.7152 35.5492 25.168 35.6704 25.5718C35.7915 25.9756 35.9673 26.3223 36.1954 26.6129C36.4234 26.9035 36.7037 27.1275 37.0339 27.2848C37.3641 27.4422 37.7434 27.5209 38.1718 27.5209C38.6002 27.5209 38.9668 27.4422 39.3026 27.2848C39.6383 27.1275 39.9202 26.9035 40.149 26.6129C40.3771 26.3223 40.5529 25.9756 40.674 25.5718C40.7952 25.168 40.8561 24.7152 40.8561 24.2127C40.8561 23.7102 40.7952 23.255 40.674 22.8464C40.5521 22.4378 40.3771 22.0886 40.149 21.798C39.9202 21.5074 39.6383 21.2835 39.3026 21.1261C38.9668 20.9688 38.5899 20.8901 38.1718 20.8901C37.7537 20.8901 37.3641 20.9712 37.0339 21.1342C36.7029 21.2963 36.4234 21.5235 36.1954 21.8133C35.9665 22.1039 35.7915 22.4531 35.6704 22.8617C35.5484 23.2703 35.4883 23.7206 35.4883 24.2127Z" fill="#3A81C3"/>
<path d="M44.9561 21.8337C45.3258 21.7254 45.8025 21.625 46.3853 21.5311C46.9689 21.438 47.5818 21.3906 48.2232 21.3906C48.8646 21.3906 49.4173 21.4773 49.8496 21.6491C50.282 21.8217 50.6248 22.0649 50.8782 22.3804C51.1308 22.6959 51.3106 23.07 51.4183 23.5027C51.5252 23.9362 51.579 24.4186 51.579 24.95V29.3363H49.4054V25.2157C49.4054 24.5069 49.3128 24.0044 49.1283 23.709C48.9438 23.4136 48.5977 23.2659 48.0925 23.2659C47.9365 23.2659 47.7718 23.2731 47.5968 23.2883C47.4218 23.3028 47.2659 23.3204 47.1297 23.3397V29.3363H44.9561V21.8329V21.8337Z" fill="#3A81C3"/>
<path d="M56.6113 29.4844C55.9786 29.4748 55.4663 29.4057 55.072 29.2773C54.6784 29.1497 54.3664 28.9698 54.1384 28.7386C53.9095 28.5075 53.7543 28.2265 53.6712 27.8966C53.5888 27.5666 53.5469 27.195 53.5469 26.7815V18.2298L55.7205 17.875V26.3376C55.7205 26.5351 55.7347 26.7117 55.764 26.869C55.7933 27.0264 55.8488 27.1596 55.9319 27.268C56.0143 27.3764 56.1338 27.4655 56.289 27.5337C56.4442 27.6028 56.6541 27.6469 56.9162 27.667L56.6097 29.4836L56.6113 29.4844Z" fill="#3A81C3"/>
<path d="M60.5361 19.3231C60.5361 19.7269 60.407 20.0448 60.1497 20.276C59.8923 20.5072 59.5883 20.6228 59.2383 20.6228C58.8883 20.6228 58.5842 20.5072 58.3268 20.276C58.0687 20.0448 57.9404 19.7269 57.9404 19.3231C57.9404 18.9193 58.0695 18.6022 58.3268 18.3702C58.5842 18.139 58.8883 18.0234 59.2383 18.0234C59.5883 18.0234 59.8923 18.139 60.1497 18.3702C60.407 18.6014 60.5361 18.9193 60.5361 19.3231ZM60.3318 29.3366H58.1582V21.5676H60.3318V29.3366Z" fill="#3A81C3"/>
<path d="M62.374 21.8337C62.7438 21.7254 63.2205 21.625 63.8033 21.5311C64.3869 21.438 64.9998 21.3906 65.6412 21.3906C66.2825 21.3906 66.8345 21.4773 67.2676 21.6491C67.6999 21.8217 68.0428 22.0649 68.2962 22.3804C68.5488 22.6959 68.7286 23.07 68.8362 23.5027C68.9431 23.9362 68.997 24.4186 68.997 24.95V29.3363H66.8234V25.2157C66.8234 24.5069 66.7307 24.0044 66.5462 23.709C66.3617 23.4136 66.0157 23.2659 65.5105 23.2659C65.3545 23.2659 65.1898 23.2731 65.0148 23.2883C64.8398 23.3036 64.6838 23.3204 64.5476 23.3397V29.3363H62.374V21.8329V21.8337Z" fill="#3A81C3"/>
<path d="M70.6012 25.5135C70.6012 24.8247 70.7057 24.2211 70.9148 23.7041C71.1238 23.1871 71.3986 22.7569 71.7391 22.4117C72.0796 22.0673 72.4707 21.8064 72.9134 21.629C73.356 21.4516 73.8105 21.3633 74.2777 21.3633C75.3665 21.3633 76.2272 21.7004 76.8599 22.3747C77.4918 23.0491 77.8077 24.0413 77.8077 25.3506C77.8077 25.479 77.803 25.6187 77.7935 25.7712C77.784 25.9237 77.7737 26.0594 77.7642 26.1774H72.8334C72.8817 26.6301 73.0907 26.9898 73.4605 27.2555C73.8303 27.5212 74.326 27.6545 74.9484 27.6545C75.3467 27.6545 75.7387 27.6175 76.1227 27.5437C76.5067 27.4698 76.8203 27.3791 77.0634 27.2707L77.3548 29.0577C77.2384 29.1171 77.0824 29.1757 76.8876 29.2351C76.6928 29.2945 76.4767 29.3459 76.2383 29.39C76 29.4342 75.745 29.4711 75.4726 29.5008C75.2002 29.5305 74.9278 29.5449 74.6554 29.5449C73.9649 29.5449 73.3647 29.4414 72.854 29.2351C72.3432 29.028 71.9204 28.7454 71.5847 28.3858C71.2489 28.0261 71.0011 27.6007 70.8403 27.1078C70.6796 26.6157 70.5996 26.0843 70.5996 25.5127L70.6012 25.5135ZM75.707 24.6714C75.6975 24.4844 75.6658 24.3022 75.612 24.1248C75.5581 23.9473 75.4758 23.79 75.3641 23.6519C75.2525 23.5139 75.1107 23.4007 74.9413 23.3124C74.771 23.2241 74.5596 23.1791 74.307 23.1791C74.0544 23.1791 73.8549 23.2209 73.6799 23.3043C73.5049 23.3878 73.3592 23.4986 73.242 23.6367C73.1256 23.7747 73.0353 23.9345 72.972 24.1167C72.9086 24.2989 72.8627 24.4836 72.8334 24.6706H75.707V24.6714Z" fill="#3A81C3"/>
<path d="M84.1097 23.5191C83.9149 23.4701 83.6869 23.4179 83.424 23.3642C83.1611 23.3104 82.8792 23.2831 82.5775 23.2831C82.4413 23.2831 82.2782 23.2959 82.0889 23.32C81.8997 23.3449 81.7556 23.3714 81.659 23.4011V29.3382H79.4854V21.9826C79.8741 21.8446 80.3334 21.7145 80.8639 21.5909C81.3937 21.4681 81.9844 21.4062 82.6361 21.4062C82.7525 21.4062 82.8934 21.4135 83.0589 21.4287C83.2244 21.4432 83.3891 21.4632 83.5546 21.4881C83.7201 21.513 83.8848 21.5427 84.0503 21.5764C84.2158 21.611 84.3568 21.6527 84.4732 21.7017L84.1081 23.5183L84.1097 23.5191Z" fill="#3A81C3"/>
<path d="M85.1305 25.5135C85.1305 24.8247 85.235 24.2211 85.4441 23.7041C85.6531 23.1871 85.9279 22.7569 86.2684 22.4117C86.6089 22.0673 87 21.8064 87.4427 21.629C87.8853 21.4516 88.3398 21.3633 88.807 21.3633C89.8958 21.3633 90.7565 21.7004 91.3892 22.3747C92.0211 23.0491 92.337 24.0413 92.337 25.3506C92.337 25.479 92.3323 25.6187 92.3228 25.7712C92.3133 25.9237 92.303 26.0594 92.2935 26.1774H87.3627C87.411 26.6301 87.62 26.9898 87.9898 27.2555C88.3596 27.5212 88.8553 27.6545 89.4777 27.6545C89.876 27.6545 90.268 27.6175 90.652 27.5437C91.036 27.4698 91.3496 27.3791 91.5927 27.2707L91.8841 29.0577C91.7677 29.1171 91.6117 29.1757 91.4169 29.2351C91.2221 29.2945 91.006 29.3459 90.7676 29.39C90.5293 29.4342 90.2743 29.4711 90.0019 29.5008C89.7295 29.5305 89.4571 29.5449 89.1847 29.5449C88.4942 29.5449 87.894 29.4414 87.3833 29.2351C86.8725 29.028 86.4497 28.7454 86.114 28.3858C85.7782 28.0261 85.5304 27.6007 85.3696 27.1078C85.2089 26.6157 85.1289 26.0843 85.1289 25.5127L85.1305 25.5135ZM90.2363 24.6714C90.2268 24.4844 90.1951 24.3022 90.1413 24.1248C90.0874 23.9473 90.0051 23.79 89.8934 23.6519C89.7818 23.5139 89.64 23.4007 89.4706 23.3124C89.3003 23.2241 89.0889 23.1791 88.8363 23.1791C88.5837 23.1791 88.3842 23.2209 88.2092 23.3043C88.0342 23.3878 87.8885 23.4986 87.7713 23.6367C87.6549 23.7747 87.5646 23.9345 87.5013 24.1167C87.4379 24.2989 87.392 24.4836 87.3627 24.6706H90.2363V24.6714Z" fill="#3A81C3"/>
<path d="M93.6494 25.4549C93.6494 24.8938 93.7389 24.3648 93.9194 23.8671C94.0992 23.3702 94.3597 22.9367 94.7002 22.5674C95.0407 22.1981 95.454 21.9051 95.9402 21.6884C96.4264 21.4717 96.9807 21.3633 97.6031 21.3633C98.0117 21.3633 98.3862 21.4002 98.7267 21.4741C99.0672 21.5479 99.3974 21.6539 99.7189 21.792L99.2667 23.5492C99.0624 23.4705 98.8384 23.4015 98.5961 23.3421C98.353 23.2827 98.0806 23.2538 97.7789 23.2538C97.1367 23.2538 96.6576 23.4561 96.3417 23.859C96.0257 24.2628 95.8674 24.7942 95.8674 25.4541C95.8674 26.1533 96.0154 26.6952 96.3124 27.0789C96.6093 27.4626 97.1272 27.6553 97.866 27.6553C98.1289 27.6553 98.4108 27.6312 98.7125 27.5814C99.0134 27.5324 99.2913 27.4538 99.5439 27.3454L99.8503 29.1476C99.5969 29.2559 99.2818 29.3491 98.9025 29.4285C98.5232 29.5072 98.1051 29.5465 97.6482 29.5465C96.9482 29.5465 96.3448 29.4406 95.8397 29.2286C95.3337 29.0167 94.9179 28.7293 94.5925 28.3649C94.2663 28.0004 94.0287 27.5702 93.8775 27.0725C93.7262 26.5756 93.651 26.0361 93.651 25.4549H93.6494Z" fill="#3A81C3"/>
<path d="M101.308 29.3367V18.2298L103.482 17.875V21.5974C103.628 21.5484 103.815 21.501 104.043 21.4569C104.271 21.4127 104.493 21.3903 104.707 21.3903C105.329 21.3903 105.847 21.477 106.261 21.6487C106.674 21.8213 107.005 22.0646 107.253 22.38C107.501 22.6955 107.676 23.0696 107.778 23.5023C107.88 23.9358 107.931 24.4182 107.931 24.9497V29.3359H105.757V25.2154C105.757 24.5065 105.667 24.004 105.487 23.7086C105.307 23.4132 104.974 23.2655 104.488 23.2655C104.293 23.2655 104.111 23.2831 103.94 23.3169C103.77 23.3514 103.617 23.3883 103.481 23.4276V29.3351H101.308L101.308 29.3367Z" fill="#3A81C3"/>
<path d="M109.9 21.8337C110.27 21.7254 110.747 21.625 111.33 21.5311C111.913 21.438 112.526 21.3906 113.168 21.3906C113.809 21.3906 114.362 21.4773 114.794 21.6491C115.226 21.8217 115.569 22.0649 115.823 22.3804C116.075 22.6959 116.255 23.07 116.363 23.5027C116.47 23.9362 116.523 24.4186 116.523 24.95V29.3363H114.35V25.2157C114.35 24.5069 114.257 24.0044 114.073 23.709C113.888 23.4136 113.542 23.2659 113.037 23.2659C112.881 23.2659 112.716 23.2731 112.541 23.2883C112.366 23.3036 112.21 23.3204 112.074 23.3397V29.3363H109.9V21.8329V21.8337Z" fill="#3A81C3"/>
<path d="M118.128 25.5135C118.128 24.8247 118.232 24.2211 118.441 23.7041C118.65 23.1871 118.925 22.7569 119.265 22.4117C119.606 22.0673 119.997 21.8064 120.44 21.629C120.882 21.4516 121.337 21.3633 121.804 21.3633C122.893 21.3633 123.754 21.7004 124.386 22.3747C125.018 23.0491 125.334 24.0413 125.334 25.3506C125.334 25.479 125.329 25.6187 125.32 25.7712C125.31 25.9237 125.3 26.0594 125.291 26.1774H120.36C120.408 26.6301 120.617 26.9898 120.987 27.2555C121.357 27.5212 121.852 27.6545 122.475 27.6545C122.873 27.6545 123.265 27.6175 123.649 27.5437C124.033 27.4698 124.347 27.3791 124.59 27.2707L124.881 29.0577C124.765 29.1171 124.609 29.1757 124.414 29.2351C124.219 29.2945 124.003 29.3459 123.765 29.39C123.526 29.4342 123.271 29.4711 122.999 29.5008C122.727 29.5305 122.454 29.5449 122.182 29.5449C121.491 29.5449 120.891 29.4414 120.38 29.2351C119.87 29.028 119.447 28.7454 119.111 28.3858C118.775 28.0261 118.527 27.6007 118.367 27.1078C118.206 26.6157 118.126 26.0843 118.126 25.5127L118.128 25.5135ZM123.233 24.6714C123.224 24.4844 123.192 24.3022 123.138 24.1248C123.084 23.9473 123.002 23.79 122.89 23.6519C122.779 23.5139 122.637 23.4007 122.468 23.3124C122.297 23.2241 122.086 23.1791 121.833 23.1791C121.581 23.1791 121.381 23.2209 121.206 23.3043C121.031 23.3878 120.886 23.4986 120.768 23.6367C120.652 23.7747 120.562 23.9345 120.498 24.1167C120.435 24.2989 120.389 24.4836 120.36 24.6706H123.233V24.6714Z" fill="#3A81C3"/>
<path d="M131.637 23.5191C131.442 23.4701 131.214 23.4179 130.951 23.3642C130.688 23.3104 130.407 23.2831 130.105 23.2831C129.969 23.2831 129.806 23.2959 129.616 23.32C129.427 23.3449 129.283 23.3714 129.186 23.4011V29.3382H127.013V21.9826C127.401 21.8446 127.861 21.7145 128.391 21.5909C128.921 21.4681 129.512 21.4062 130.163 21.4062C130.28 21.4062 130.421 21.4135 130.586 21.4287C130.752 21.4432 130.916 21.4632 131.082 21.4881C131.247 21.513 131.412 21.5427 131.578 21.5764C131.743 21.611 131.884 21.6527 132.001 21.7017L131.635 23.5183L131.637 23.5191Z" fill="#3A81C3"/>
</g>
<defs>
<clipPath id="clip0_2001_710">
<rect width="132" height="35" fill="white"/>
</clipPath>
</defs>
</svg>
